<svg width="30" height="30" viewBox="0 0 30 30" fill="none" xmlns="http://www.w3.org/2000/svg">
<path fill-rule="evenodd" clip-rule="evenodd" d="M15 2.47229C8.09644 2.47229 2.5 8.00669 2.5 14.8337C2.5 21.6607 8.09644 27.1951 15 27.1951C21.9036 27.1951 27.5 21.6607 27.5 14.8337C27.5 8.00669 21.9036 2.47229 15 2.47229ZM20.8002 10.1757C21.3306 10.6127 21.4022 11.3922 20.9603 11.9167L14.7103 19.3335C14.4921 19.5925 14.1764 19.7521 13.8363 19.7754C13.4963 19.7986 13.1614 19.6836 12.9092 19.4568L9.15917 16.0855C8.64835 15.6263 8.6107 14.8445 9.07508 14.3394C9.53947 13.8342 10.33 13.797 10.8408 14.2562L13.6252 16.7594L19.0397 10.334C19.4817 9.80949 20.2699 9.73863 20.8002 10.1757Z" fill="#D300CB"/>
</svg>
