<svg width="30" height="30" viewBox="0 0 30 30" fill="none" xmlns="http://www.w3.org/2000/svg">
<g id="icon_filled/Check_circle">
<path id="Exclude" fill-rule="evenodd" clip-rule="evenodd" d="M15 2.47217C8.09644 2.47217 2.5 8.00657 2.5 14.8336C2.5 21.6606 8.09644 27.195 15 27.195C21.9036 27.195 27.5 21.6606 27.5 14.8336C27.5 8.00657 21.9036 2.47217 15 2.47217ZM20.8002 10.1756C21.3306 10.6126 21.4022 11.3921 20.9603 11.9166L14.7103 19.3334C14.4921 19.5924 14.1764 19.752 13.8363 19.7752C13.4963 19.7985 13.1614 19.6835 12.9092 19.4567L9.15917 16.0854C8.64835 15.6262 8.6107 14.8444 9.07508 14.3392C9.53947 13.8341 10.33 13.7968 10.8408 14.2561L13.6252 16.7592L19.0397 10.3338C19.4817 9.80937 20.2699 9.73851 20.8002 10.1756Z" fill="white"/>
</g>
</svg>
