<svg width="39" height="38" viewBox="0 0 39 38" fill="none" xmlns="http://www.w3.org/2000/svg">
<g id="octicon:play-24">
<path id="Vector" d="M15.5635 24.4644V13.3013C15.5637 13.1616 15.6015 13.0246 15.6729 12.9046C15.7443 12.7845 15.8467 12.6859 15.9693 12.619C16.0919 12.5521 16.2302 12.5195 16.3698 12.5244C16.5094 12.5294 16.6451 12.5718 16.7626 12.6472L25.4465 18.2272C25.5564 18.2977 25.6469 18.3946 25.7095 18.5092C25.7722 18.6238 25.8051 18.7523 25.8051 18.8829C25.8051 19.0135 25.7722 19.142 25.7095 19.2565C25.6469 19.3711 25.5564 19.4681 25.4465 19.5385L16.7626 25.1201C16.6451 25.1955 16.5094 25.2379 16.3698 25.2429C16.2302 25.2478 16.0919 25.2152 15.9693 25.1483C15.8467 25.0814 15.7443 24.9828 15.6729 24.8627C15.6015 24.7427 15.5637 24.6057 15.5635 24.466V24.4644Z" fill="white"/>
<path id="Vector_2" d="M2.32568 18.8829C2.32568 9.42193 9.99566 1.75195 19.4566 1.75195C28.9175 1.75195 36.5875 9.42193 36.5875 18.8829C36.5875 28.3438 28.9175 36.0138 19.4566 36.0138C9.99566 36.0138 2.32568 28.3438 2.32568 18.8829ZM19.4566 4.08799C15.5328 4.08799 11.7696 5.64673 8.99504 8.42131C6.22046 11.1959 4.66172 14.959 4.66172 18.8829C4.66172 22.8067 6.22046 26.5699 8.99504 29.3444C11.7696 32.119 15.5328 33.6778 19.4566 33.6778C23.3804 33.6778 27.1436 32.119 29.9182 29.3444C32.6927 26.5699 34.2515 22.8067 34.2515 18.8829C34.2515 14.959 32.6927 11.1959 29.9182 8.42131C27.1436 5.64673 23.3804 4.08799 19.4566 4.08799Z" fill="white"/>
</g>
</svg>
